<svg xmlns="http://www.w3.org/2000/svg" viewBox="0 0 60 60"><title>B站</title><g id="图层_2" data-name="图层 2"><g id="图层_2-2" data-name="图层 2"><path d="M30,0A30,30,0,0,0,0,30H0A30,30,0,0,0,30,60h0A30,30,0,0,0,30,0Z" fill="#ff509b"/><path d="M9.93,19.66c0,2,0,4,0,6,0,1.05.06,2.1.14,3.15.09,1.25.23,2.53.34,3.81,0,.06,0,.11,0,.14.43,0,.86-.06,1.28-.06a13.16,13.16,0,0,1,5.23.86,10,10,0,0,1,2.33,1.24,1.36,1.36,0,0,1,.41,1.8,2.42,2.42,0,0,1-.91,1.2,10.63,10.63,0,0,1-3.22,1.87,15.52,15.52,0,0,1-2.58.63c-1.14.17-2.3.25-3.47.36a4.62,4.62,0,0,1-.72,0c-.11,0-.15-.06-.15-.17,0-.51-.06-1.05-.09-1.59s-.13-1.36-.21-2L8,34.08c-.12-1-.26-2-.37-3s-.21-2-.34-2.92S7,26,6.85,24.83a29.9,29.9,0,0,0-.76-3.89c0-.06,0-.17.07-.21q1.7-.65,3.38-1.34c.36-.16.4-.22.4.26Zm24.19,0c0,2,0,4,0,6,0,1.05.06,2.1.14,3.15.09,1.25.23,2.53.34,3.81,0,.06,0,.11,0,.14.43,0,.86-.06,1.28-.06a13.16,13.16,0,0,1,5.23.86,10,10,0,0,1,2.33,1.24,1.33,1.33,0,0,1,.39,1.79,2.42,2.42,0,0,1-.91,1.2,10.69,10.69,0,0,1-3.22,1.87,15.52,15.52,0,0,1-2.58.63c-1.14.17-2.31.26-3.47.37a5.13,5.13,0,0,1-.72,0c-.11,0-.15-.06-.15-.17,0-.51-.05-1.05-.09-1.59s-.13-1.36-.21-2l-.34-2.84c-.11-1-.25-2-.36-3s-.21-2-.35-2.92S31.2,26,31,24.82a29.9,29.9,0,0,0-.77-3.89.29.29,0,0,1,.08-.2c1.13-.44,2.25-.88,3.38-1.34.37-.16.4-.22.4.26Zm-6.54,10.8c.6,0,1.2,0,1.79,0a.23.23,0,0,1,.23.25c0,.31,0,.6,0,.9,0,1.39,0,2.81,0,4.2,0,1.13.06,2.23.08,3.35a1.34,1.34,0,0,0,0,.26c-.64,0-1.28,0-1.88,0a.2.2,0,0,1-.15-.15c-.09-1-.17-2-.26-3l-.25-2.76c-.08-.94-.17-1.89-.25-2.84a.66.66,0,0,0,0-.2A3.14,3.14,0,0,1,27.58,30.46Zm24.19,0c.6,0,1.2,0,1.79,0a.23.23,0,0,1,.23.25c0,.31,0,.6,0,.9,0,1.39,0,2.81,0,4.2,0,1.13.06,2.23.08,3.35a1.34,1.34,0,0,0,0,.26c-.64,0-1.28,0-1.88,0a.2.2,0,0,1-.15-.15c-.09-1-.17-2-.26-3l-.25-2.76c-.08-.94-.17-1.89-.25-2.84a.66.66,0,0,0,0-.2,3.14,3.14,0,0,1,.66-.08Zm-29.56-.08c.07.46.15.91.2,1.39.11.78.17,1.56.25,2.34s.15,1.36.23,2,.17,1.45.26,2.2c0,.21.05.44.08.66l-2,.26q-.89-4.42-1.73-8.84c.48-.06.94-.14,1.39-.2s.68,0,1-.08a.26.26,0,0,1,.32.23Zm24.19,0c.07.46.15.91.2,1.39.11.78.17,1.56.26,2.34l.23,2,.26,2.2c0,.21.06.44.08.66l-2,.26c-.6-3-1.16-5.87-1.73-8.84.48-.06.94-.14,1.4-.2s.67,0,1-.08a.26.26,0,0,1,.32.23ZM25,22.1l.17,2.58c.08,1.16.17,2.33.25,3.49.06.84.09,1.68.17,2.53s.17,1.84.25,2.75c.08.66.14,1.36.2,2s.16,1.45.21,2.2l.06.63c0,.11-.05.14-.17.11l-1.79-.15c-.54-5.42-1-10.88-2-16.34l1-.11,1.19-.08C24.83,21.7,25,21.78,25,22.1Zm24.19,0,.17,2.58c.08,1.16.17,2.33.25,3.49.06.84.09,1.68.17,2.53s.17,1.84.26,2.75c.08.66.14,1.36.2,2s.16,1.45.2,2.2l.06.63c0,.11,0,.14-.17.11l-1.79-.15c-.54-5.42-1-10.88-2-16.34l1-.11,1.19-.08c.33,0,.45.05.48.38ZM27.68,26h0c.15,0,.2,0,.2.2,0,.46,0,.94,0,1.39v1.73c-.34,0-.65.06-1,.08-.09-1.1-.17-2.22-.26-3.41h1Zm24.19,0h0c.15,0,.2,0,.2.2,0,.46,0,.94,0,1.39v1.73c-.34,0-.65.06-1,.08-.09-1.1-.17-2.22-.26-3.41h1Zm-22.58,0c.17,0,.25.06.25.26v3.13l-1.24-.06V26.06h1Zm24.19,0c.17,0,.25.06.25.26v3.13l-1.24-.06V26.06h1Zm-33.6-.19c.16,0,.11.11.14.2l.11,1.13c.06.6.14,1.16.2,1.76v.23l-.92.16c-.21-1.11-.4-2.2-.6-3.33C19.17,26,19.52,25.9,19.89,25.87Zm24.19,0c.16,0,.11.11.14.2l.11,1.13c.06.6.14,1.16.2,1.76v.23l-.92.16c-.21-1.11-.4-2.2-.6-3.33C43.36,26,43.71,25.9,44.08,25.87Zm-22.58-.18c.11,0,.17.07.2.21.1,1.05.2,2.08.31,3.16-.4,0-.78.06-1.2.09l-.43-3.43c.39,0,.76,0,1.13,0Zm24.2,0c.11,0,.17.07.2.21.1,1.05.2,2.08.31,3.16-.4,0-.78.06-1.2.09l-.43-3.43c.39,0,.76,0,1.13,0Z" fill="#fff"/><path d="M12.22,34.9c.17,1.23.35,2.47.51,3.75l3.07-2.33A22.52,22.52,0,0,0,12.22,34.9Zm24.2,0c.17,1.23.34,2.47.51,3.75L40,36.32a22.46,22.46,0,0,0-3.58-1.43Z" fill="#f66e98"/></g></g></svg>