<svg xmlns="http://www.w3.org/2000/svg" viewBox="0 0 60 60"><title>微信公众号</title><g id="图层_2" data-name="图层 2"><g id="图层_2-2" data-name="图层 2"><path d="M30,60A30,30,0,1,1,60,30,30,30,0,0,1,30,60Z" fill="#1bac69"/><path d="M48.8,35.4c0-5.35-5.28-9.7-11.21-9.7-6.29,0-11.23,4.35-11.23,9.7s4.94,9.7,11.23,9.7a16.88,16.88,0,0,0,4-.66l3.63,2-1-3.35C46.83,41.08,48.8,38.4,48.8,35.4ZM33.95,33.72h0a1.33,1.33,0,0,1,0-2.67,1.52,1.52,0,0,1,1.65,1.33A1.51,1.51,0,0,1,33.95,33.72Zm7.27,0h0a1.33,1.33,0,0,1,0-2.67,1.51,1.51,0,0,1,1.65,1.33A1.52,1.52,0,0,1,41.22,33.72Z" fill="#fff"/><path d="M24.2,15c-7.41,0-13.48,5.11-13.48,11.61,0,3.75,2,6.84,5.39,9.23L14.76,40l4.71-2.4a23.27,23.27,0,0,0,4.72.68,12.37,12.37,0,0,0,1.26-.06A10.1,10.1,0,0,1,25,35.31c0-6,5.06-10.8,11.47-10.8a12.53,12.53,0,0,1,1.3.08C36.63,19.08,30.83,15,24.2,15Zm-4.39,9.22a1.9,1.9,0,0,1-2-1.71,1.9,1.9,0,0,1,2-1.71,1.71,1.71,0,0,1,0,3.42Zm9.43,0a1.9,1.9,0,0,1-2-1.71,1.92,1.92,0,0,1,2-1.71,1.71,1.71,0,0,1,0,3.42Z" fill="#fff"/></g></g></svg>