<svg xmlns="http://www.w3.org/2000/svg" viewBox="0 0 60 60"><title>知乎</title><g id="图层_2" data-name="图层 2"><g id="图层_2-2" data-name="图层 2"><path d="M30,60A30,30,0,1,1,60,30,30,30,0,0,1,30,60Z" fill="#0078d8"/><path d="M21.63,14.29s-2.33.13-3.16,1.58S15,24.72,15,24.72s.89.41,2.4-.69a5.93,5.93,0,0,0,2-3l2.74-.14.07,7.82s-4.74-.07-5.7,0S15,31.31,15,31.31h7.21a24,24,0,0,1-2.47,7.48,21.46,21.46,0,0,1-5.35,5.63,6.12,6.12,0,0,0,5-.41c2.47-1.44,4.29-7.78,4.29-7.78l5.8,7.09S30,39.95,29.36,39s-4-4.79-4-4.79l-1.48,1.3,1.05-4.2h6.31s0-2.47-1.23-2.61-5.08,0-5.08,0V21h5.7s-.07-2.54-1.17-2.54H20.19l1.44-4.19Z" fill="#fff"/><path d="M16.46,45.28a6.6,6.6,0,0,1-2.29-.39l-.85-.34.75-.53a21.11,21.11,0,0,0,5.21-5.47,22.63,22.63,0,0,0,2.31-6.73H14.35l.13-.61c.15-.68.73-2.91,2-3,.79-.06,4,0,5.23,0l-.06-6.79-1.88.09a6.25,6.25,0,0,1-2.07,2.94c-1.7,1.24-2.79.79-2.91.74L14.35,25l.16-.43c.11-.3,2.7-7.47,3.54-8.93C19,14,21.5,13.8,21.6,13.79l1.07-.06-.6.8L20.89,18h8.56c1.51,0,1.65,2.52,1.67,3v.51H25.43v6.67c1.1,0,3.64-.09,4.63,0,1.63.18,1.68,2.81,1.68,3.11v.5H25.32l-.57,2.26.65-.57.33.38c.14.16,3.42,3.87,4.05,4.85S30,42.8,30,43.4l-.17,1.11-5.92-7.24c-.62,1.85-2.19,6-4.24,7.18A6.2,6.2,0,0,1,16.46,45.28Zm-1-1.09a5.46,5.46,0,0,0,3.64-.62c1.89-1.1,3.57-5.78,4.07-7.48l.25-.88,1.1-4.4h6.17c-.08-.68-.3-1.56-.76-1.61-1.18-.13-5,0-5,0l-.52,0v-8.7h5.66c-.1-.79-.35-1.54-.63-1.54h-10l1.4-4.07a3,3,0,0,0-2,1.2c-.66,1.15-2.58,6.37-3.24,8.16a3.25,3.25,0,0,0,1.42-.65,5.42,5.42,0,0,0,1.8-2.74l.09-.36,3.64-.18.08,8.86h-.51s-4.73-.07-5.65,0c-.24,0-.63.75-.9,1.61h7.14l-.08.57A24.18,24.18,0,0,1,20.14,39,20.52,20.52,0,0,1,15.48,44.19ZM24.1,36l5,6.12a6.39,6.39,0,0,0-.16-2.83c-.48-.74-2.77-3.37-3.64-4.36Z" fill="#fff"/><path d="M32.59,18.23V41.34h2.32l.84,2.9,4.08-2.9h5.74V18.23ZM42.94,38.72h-2.7L36.8,41.31,36,38.72h-.71V20.81h7.6Z" fill="#fff"/><path d="M35.47,45.06l-.94-3.22H32.09V17.73h14V41.84H40Zm-2.38-4.22h2.2L36,43.43l3.64-2.59h5.4V18.73h-12Zm3.43,1.31-.85-2.93h-.83V20.31h8.6V39.22h-3Zm-.68-3.93h.59l.65,2.26,3-2.26h2.37V21.31h-6.6Z" fill="#fff"/></g></g></svg>